<?xml version="1.0" encoding="utf-8"?>
<!-- Generator: Adobe Illustrator 24.3.0, SVG Export Plug-In . SVG Version: 6.00 Build 0)  -->
<svg version="1.1" id="mapstar" xmlns="http://www.w3.org/2000/svg" xmlns:xlink="http://www.w3.org/1999/xlink" x="0px" y="0px"
	 viewBox="0 0 1920 1080" style="enable-background:new 0 0 1920 1080;" xml:space="preserve">

<filter id="outline">
        <feMorphology in="SourceAlpha" result="DILATED" operator="dilate" radius="1"></feMorphology>
        
        <feFlood flood-color="#FFF" flood-opacity="1" result="PINK"></feFlood>
        <feComposite in="PINK" in2="DILATED" operator="in" result="OUTLINE"></feComposite>

        <feMerge>
            <feMergeNode in="OUTLINE" />
            <feMergeNode in="SourceGraphic" />
        </feMerge>
</filter>

<g id="overlay-1" class="map-overlay" style="display:none">
	<rect x="736" y="266" style="fill:none" width="403.1" height="39.9"/>
	<text transform="matrix(1 0 0 1 734.0192 334.6066)" class="st1"><tspan x="0" y="0" class="map-text" filter="url(#outline)">Fox glacier</tspan><tspan x="-63.6" y="31.2" class="map-text" filter="url(#outline)"> (Te Moeka o Tuawe )</tspan></text>
	<rect x="736" y="308.5" style="fill:none" width="385.3" height="39.9"/>
	<rect x="1152.2" y="97.7" style="fill:none" width="653" height="39.9"/>
	<g>
		<text transform="matrix(1 0 0 1 1042.3582 157.2461)"><tspan x="0" y="0" class="map-text" filter="url(#outline)">Frans Josef glacier</tspan><tspan x="-71.5" y="31.2" class="map-text" filter="url(#outline)">( Kā Roimata o Hine Hukatere )</tspan></text>
	</g>
	<g>
		<text transform="matrix(1 0 0 1 1499.3835 817.7234)" class="map-text" filter="url(#outline)">Murchison glacier</text>
	</g>
	<g>
		<text transform="matrix(1 0 0 1 1082.3899 857.7234)" class="map-text" filter="url(#outline)">Tasman glacier</text>
	</g>
	<g>
		<text transform="matrix(1 0 0 1 717.9592 558.9384)" class="map-text" filter="url(#outline)">Balfour glacier</text>
	</g>
	<g>
		<text transform="matrix(1 0 0 1 766.9452 990.3425)" class="map-text" filter="url(#outline)">Hooker glacier</text>
	</g>
	<g>
		<text transform="matrix(1 0 0 1 1383.6279 170.0476)" class="map-text" filter="url(#outline)">Whymper glacier</text>
	</g>
	<circle style="fill:#000;" cx="953.5" cy="680.1" r="5"/>
	<g>
		<text transform="matrix(1 0 0 1 977.5908 689.8832)" class="map-text" filter="url(#outline)">Aoraki / Mt Cook</text>
	</g>
</g>
<g id="overlay-2" class="map-overlay" style="display:none">
	<g style="display:inline;">
		<text transform="matrix(1 0 0 1 858.3512 773.9374)" class="map-text" filter="url(#outline)">Glacier extent in 1978</text>
	</g>
</g>
<g id="overlay-3" class="map-overlay" style="display:none">
	<g style="display:inline;">
		<text transform="matrix(1 0 0 1 858.3512 773.9374)" class="map-text" filter="url(#outline)">Glacier extent in 2016</text>
	</g>
</g>
<g id="overlay-4" class="map-overlay" style="display:none">
	<g style="display:inline;">
		<text transform="matrix(1 0 0 1 1046.3315 959.9954)" class="map-text" filter="url(#outline)">Glacier extent in 1978</text>
	</g>
</g>
<g id="overlay-5" class="map-overlay" style="display:none">
	<g style="display:inline;">
		<text transform="matrix(1 0 0 1 1019.9698 760.2287)" class="map-text" filter="url(#outline)">Glacier extent in 2016</text>
	</g>
</g>
</svg>
