<?xml version="1.0" encoding="utf-8"?>
<svg version="1.1" id="map-overlay" xmlns="http://www.w3.org/2000/svg" xmlns:xlink="http://www.w3.org/1999/xlink" x="0px" y="0px"
         viewBox="0 0 1280 720" style="enable-background:new 0 0 1280 720;" xml:space="preserve">
    <polygon points="704.1,99.6 610.1,5.6 516.1,99.6 520,103.5 587.1,103.5 587.1,254 636.3,254 636.3,103.5 700.2,103.5 "/>
    <polygon points="516.1,621.3 610.1,715.3 704.1,621.3 700.2,617.4 633,617.4 633,466.9 583.8,466.9 583.8,617.4 520,617.4 "/>
    <polygon points="1185.7,454.4 1279.6,360.4 1185.7,266.5 1181.7,270.4 1181.7,337.5 1031.2,337.5 1031.2,386.7 1181.7,386.7 
        1181.7,450.5 "/>
    <polygon points="97,266.5 3,360.4 97,454.4 100.9,450.5 100.9,383.4 251.4,383.4 251.4,334.2 100.9,334.2 100.9,270.4 "/>
</svg>