<?xml version="1.0" encoding="utf-8"?>
<!-- Generator: Adobe Illustrator 24.3.0, SVG Export Plug-In . SVG Version: 6.00 Build 0)  -->
<svg version="1.1" id="mapstar" xmlns="http://www.w3.org/2000/svg" xmlns:xlink="http://www.w3.org/1999/xlink" x="0px" y="0px"
	 viewBox="0 0 1920 1080" style="enable-background:new 0 0 1920 1080;" xml:space="preserve">
<style type="text/css">
	.map-circle{fill:#C62026;}
	.map-rect{fill:none;}
</style>
<g id="fox-bg">
	<image style="overflow:visible;" width="1920" height="1080" xlink:href="map/big/fox.jpg" >
	</image>
</g>
<g id="franz-bg">
	<image style="overflow:visible;" width="1920" height="1080" xlink:href="map/big/frans.jpg" >
	</image>
</g>
<g id="bird-bg">
	<image style="overflow:visible;" width="1920" height="1080" xlink:href="map/big/birds.jpg" >
	</image>
</g>
<g id="overlay-1" class="map-overlay" style="display:none">
	<circle class="map-circle" cx="702.3" cy="297.3" r="20.5"/>
	<rect x="736" y="266" class="map-rect" width="403.1" height="39.9"/>
	<text transform="matrix(1 0 0 1 736.0228 291.6022)" class="map-text">Fox glacier</text>
	<rect x="736" y="308.5" class="map-rect" width="385.3" height="39.9"/>
	<text transform="matrix(1 0 0 1 736.0228 334.1022)" class="map-text">Te Moeka o Tuawe</text>
	<circle class="map-circle" cx="1118.5" cy="132.9" r="20.5"/>
	<rect x="1152.2" y="97.7" class="map-rect" width="653" height="39.9"/>
	<text transform="matrix(1 0 0 1 1152.179 123.2461)" class="map-text">Frans Josef glacier</text>
	<rect x="1152.2" y="141.2" class="map-rect" width="640.5" height="39.9"/>
	<text transform="matrix(1 0 0 1 1152.179 166.747)" class="map-text">Kā Roimata o Hine Hukatere</text>
</g>
<g id="overlay-2" class="map-overlay" style="display:none">
	<circle class="map-circle" cx="909.2" cy="803.2" r="20.5"/>
	<rect x="942.9" y="785" class="map-rect" width="653" height="39.9"/>
	<text transform="matrix(1 0 0 1 942.8815 810.545)" class="map-text">Glacier extent in 1978</text>
</g>
<g id="overlay-3" class="map-overlay" style="display:none">
	<circle class="map-circle" cx="909.2" cy="803.2" r="20.5"/>
	<rect x="942.9" y="785" class="map-rect" width="653" height="39.9"/>
	<text transform="matrix(1 0 0 1 942.8815 810.545)" class="map-text">Glacier extent in 2016</text>
</g>
<g id="overlay-4" class="map-overlay" style="display:none">
	<circle class="map-circle" cx="1056" cy="904.4" r="20.5"/>
	<rect x="1029.7" y="886.1" class="map-rect" width="653" height="39.9"/>
	<text transform="matrix(1 0 0 1 1089.679 911.6747)" class="map-text">Glacier extent in 1978</text>
</g>
<g id="overlay-5" class="map-overlay" style="display:none">
	<circle class="map-circle" cx="1056" cy="904.4" r="20.5"/>
	<rect x="1000" y="826" class="map-rect" width="653" height="39.9"/>
	<text transform="matrix(1 0 0 1 1089.679 911.6747)" class="map-text">Glacier extent in 2016</text>
</g>
</svg>
